# xmcd CD database file
# Copyright (C) 1993-1998 Ti Kan
# 
# Track frame offsets:
#     150
#     13872
#     23617
#     34630
#     46550
#     57175
#     68792
#     80247
#     92280
#     107887
#     121645
#     139632
#     147740
# 
# Disc length: 2229 seconds
# 
# Revision: 1
# Processed by: cddbd v1.4b41PL1 Copyright (c) Steve Scherf et al.
# Submitted via: DiscPlay 4.0.4
# 
DISCID=a308b30d
DTITLE=Jumping River Bullfrogs - Turn me loose
DYEAR=1900
DGENRE=
TTITLE0=C'est la vie
TTITLE1=Blue Moon Of Kentucky
TTITLE2=Cotton Fields
TTITLE3=Tulsa Time
TTITLE4=Home of The Blues
TTITLE5=Green Green Gras of Home
TTITLE6=Johnny Be Good
TTITLE7=Truck Driv'n Outlaw
TTITLE8=Tunr it up, tunr it down, turn me loose
TTITLE9=Act naturally
TTITLE10=Mystery Train
TTITLE11=The Bandit
TTITLE12=Mama
EXTD=
EXTT0=
EXTT1=
EXTT2=
EXTT3=
EXTT4=
EXTT5=
EXTT6=
EXTT7=
EXTT8=
EXTT9=
EXTT10=
EXTT11=
EXTT12=
PLAYORDER=
